<svg xmlns="http://www.w3.org/2000/svg" width="111.68" height="44"><g transform="scale(.01)"><path d="M4400 1492c-229 0-468 167-468 167v-108l-33-33h-292l-38 33v2289l33 37h296l33-38v-1960s137-88 305-88c159 0 284 79 284 241v1805l37 37h292l33-38v-1909c0-288-177-441-486-441zM6672 344h-292l-38 33v1155c-113-44-215-66-297-66-475 0-800 453-800 1325 0 747 316 1147 730 1147 174 0 318-100 423-194l63 108 40 25 168 0 33-38v-3465l-33-33zm-1041 2370c0-481 140-957 427-957 97 0 190 32 282 105v1692c-73 39-163 75-261 75-312-1-450-371-450-917zM7791 1471c-487 0-727 636-727 1328 0 725 342 1131 782 1131 193 0 385-77 512-147 19-11 18-45 18-45l-38-154s-14-29-38-29c-11 0-171 46-326 46-361 0-526-321-526-746v-104l286 24h680v-197c0-726-255-1114-629-1114zm-24 1015c-108 0-304 26-304 26s2-78 11-153c42-398 137-599 301-599 142 0 239 205 263 566 4 75 4 159 4 159l-278-1zM3016 1768c-109-213-301-306-521-306-142 0-363 54-511 120-29 13-48 47-48 47l14 42 99 212 40 29s26-8 39-16c143-92 249-143 332-143 110 0 185 73 231 183 43 102 59 244 59 408v47c-91-57-248-88-327-88-422 0-650 401-650 829 0 461 266 800 585 800 178 0 339-105 447-237l65 153 37 22 170 0 33-38v-1329c0-327-17-576-103-745zm-261 1739c-84 81-184 123-274 123-91 0-160-42-216-119-68-94-100-239-100-399 0-254 93-514 291-514 98 0 205 32 297 105l-1 801zM9962 1519h-261c-29 0-44 15-52 35-17 43-127 333-172 453-33 85-119 331-119 331l-10-1c-1-1-64-179-98-268l-192-502c-10-26-21-51-58-51h-286c-32 0-49 34-39 55 10 21 464 1055 464 1055s-488 1158-502 1184c-15 26 3 64 38 64h249c42 0 59-23 72-59 35-101 89-240 164-457 50-144 129-395 129-395h8s87 256 119 340c81 211 185 488 197 517 11 30 27 51 56 51h283s41-32 27-60c-32-67-301-720-487-1150 0 0 484-1071 493-1097 10-27 7-55-33-55"/><path fill="#f00" d="M2075 0h-329l-52 35s-493 1509-528 1633c-26 87-108 397-127 472l-170-464c-42-128-449-1277-449-1277l-61-55h-321l-39 55s587 1557 820 2146v1293l33 37h303l32-38v-1284c195-545 915-2504 915-2504l-34-55"/></g></svg>
